<svg xmlns="http://www.w3.org/2000/svg" viewBox="0 0 1200 800" role="img" aria-labelledby="title desc">
  <title id="title">Cerdo en canal</title>
  <desc id="desc">Tarjeta visual para producto cerdo en canal</desc>
  <defs>
    <linearGradient id="bg" x1="0" y1="0" x2="1" y2="1">
      <stop offset="0%" stop-color="#5a1f1f"/>
      <stop offset="100%" stop-color="#2f0f0f"/>
    </linearGradient>
    <linearGradient id="meat" x1="0" y1="0" x2="1" y2="1">
      <stop offset="0%" stop-color="#f4b0b0"/>
      <stop offset="100%" stop-color="#db7e7e"/>
    </linearGradient>
  </defs>
  <rect width="1200" height="800" fill="url(#bg)"/>
  <rect x="580" y="80" width="10" height="520" fill="#d4af37"/>
  <circle cx="585" cy="80" r="18" fill="#d4af37"/>
  <path d="M470 210 C 420 300, 420 480, 500 600 C 560 680, 640 680, 700 600 C 780 480, 780 300, 730 210 Z" fill="url(#meat)"/>
  <path d="M600 230 L600 640" stroke="#ffdede" stroke-width="10" opacity="0.85"/>
  <path d="M510 330 C560 370, 640 370, 690 330" stroke="#b04f4f" stroke-width="8" fill="none"/>
  <path d="M500 460 C560 500, 640 500, 700 460" stroke="#b04f4f" stroke-width="8" fill="none"/>
  <text x="80" y="120" font-family="Poppins, Arial, sans-serif" font-size="42" fill="#f8f4e3" letter-spacing="3">PRODUCTO</text>
  <text x="80" y="190" font-family="Playfair Display, Georgia, serif" font-size="78" fill="#ffffff">Cerdo en canal</text>
</svg>
